<?xml version="1.0" encoding="UTF-8" standalone="no"?><!DOCTYPE svg PUBLIC "-//W3C//DTD SVG 1.1//EN" "http://www.w3.org/Graphics/SVG/1.1/DTD/svg11.dtd"><svg width="100%" height="100%" viewBox="0 0 1538 800" version="1.1" xmlns="http://www.w3.org/2000/svg" xmlns:xlink="http://www.w3.org/1999/xlink" xml:space="preserve" style="fill-rule:evenodd;clip-rule:evenodd;stroke-linejoin:round;stroke-miterlimit:1.41421;"><g><rect x="-19.845" y="-97.31" width="1584.24" height="1000" style="fill:#130929;"/><g><path d="M285.449,-26.361c180.787,-18.62 336.998,57.873 348.62,170.71c11.621,112.837 -125.719,219.564 -306.506,238.184c-180.787,18.62 -336.998,-57.873 -348.62,-170.71c-11.621,-112.838 125.72,-219.564 306.506,-238.184Z" style="fill:#1b0c3a;"/><path d="M133.248,350.859c-0.365,-6.653 173.258,18.955 173.258,18.955c0,0 -155.33,77.714 -258.09,99.146c-2.07,0.431 88.131,-58.056 84.832,-118.101Z" style="fill:#1b0c3a;"/></g><g><path d="M1340.85,129.038c-166.578,-34.27 -319.184,22.317 -340.573,126.286c-21.389,103.969 96.485,216.202 263.064,250.471c166.578,34.27 319.184,-22.317 340.573,-126.286c21.389,-103.969 -96.486,-216.201 -263.064,-250.471Z" style="fill:#1b0c3a;"/><path d="M1468.43,486.744c0.398,-7.251 -91.862,0 -91.862,0c0,0 39.343,74.607 115.101,95.722c2.219,0.619 -26.834,-30.277 -23.239,-95.722Z" style="fill:#1b0c3a;"/></g></g></svg>